<?xml version="1.0" standalone="no"?>
<!DOCTYPE svg PUBLIC "-//W3C//DTD SVG 20010904//EN"
 "http://www.w3.org/TR/2001/REC-SVG-20010904/DTD/svg10.dtd">
<svg version="1.0" xmlns="http://www.w3.org/2000/svg"
 width="500.000000pt" height="500.000000pt" viewBox="0 0 500.000000 500.000000"
 preserveAspectRatio="xMidYMid meet">
<metadata>
Created by potrace 1.14, written by Peter Selinger 2001-2017
</metadata>
<g transform="translate(0.000000,500.000000) scale(0.100000,-0.100000)"
fill="#000000" stroke="none">
<path d="M2309 4987 c-2 -3 -35 -7 -73 -11 -88 -8 -234 -33 -311 -53 -33 -8
-64 -16 -70 -18 -5 -1 -17 -5 -25 -8 -8 -4 -26 -9 -40 -11 -78 -15 -312 -111
-460 -190 -680 -358 -1172 -1044 -1290 -1796 -6 -41 -13 -86 -16 -100 -21
-130 -21 -470 0 -623 34 -237 102 -487 185 -676 215 -487 576 -897 1024 -1160
133 -78 223 -121 422 -200 74 -30 319 -97 390 -107 16 -2 68 -10 115 -18 64
-11 159 -14 380 -12 162 2 306 6 320 10 14 3 39 9 55 11 77 13 193 37 220 46
17 5 67 20 111 33 208 63 432 168 623 293 47 30 98 65 112 77 15 11 39 30 54
41 159 114 381 348 527 555 217 308 384 746 425 1116 10 90 10 509 0 601 -18
168 -99 495 -147 598 -5 11 -21 49 -36 85 -40 100 -111 235 -184 350 -239 380
-569 684 -964 890 -104 54 -296 135 -376 158 -19 6 -66 20 -105 31 -38 12 -86
24 -105 27 -19 3 -38 8 -41 9 -3 2 -28 7 -55 11 -27 3 -52 8 -55 10 -4 2 -31
6 -60 10 -30 3 -65 8 -79 11 -30 6 -464 15 -471 10z"/>
</g>
</svg>
